<svg width="1440" height="471" viewBox="0 0 1440 471" fill="none" xmlns="http://www.w3.org/2000/svg">
<path d="M-3.55936 180.033L103.438 242.998C231.334 318.262 390.819 314.61 515.136 233.571V233.571C607.628 173.278 721.305 154.913 828.078 183.014L876.547 195.771C1003.52 229.188 1138.73 206.129 1247.45 132.518L1441.23 1.31532" stroke="#00CE76" stroke-opacity="0.3"/>
<path d="M-0.0597286 187.831L106.937 250.797C234.833 326.061 394.319 322.409 518.636 241.37V241.37C611.128 181.076 724.805 162.711 831.577 190.813L880.047 203.569C1007.02 236.986 1142.23 213.927 1250.95 140.317L1444.73 9.11378" stroke="#00CE76" stroke-opacity="0.3"/>
<path d="M0.497034 196.814L107.494 259.78C235.39 335.044 394.876 331.392 519.193 250.353V250.353C611.685 190.059 725.362 171.694 832.134 199.795L880.604 212.552C1007.57 245.969 1142.79 222.91 1251.51 149.3L1445.29 18.0965" stroke="#00CE76" stroke-opacity="0.3"/>
<path d="M1.05374 205.797L108.051 268.762C235.947 344.026 395.433 340.374 519.749 259.335V259.335C612.241 199.042 725.918 180.677 832.691 208.778L881.161 221.535C1008.13 254.952 1143.35 231.893 1252.06 158.282L1445.84 27.0793" stroke="#00CE76" stroke-opacity="0.3"/>
<path d="M1.6105 214.78L108.607 277.745C236.503 353.009 395.989 349.357 520.306 268.318V268.318C612.798 208.025 726.475 189.66 833.248 217.761L881.717 230.518C1008.69 263.935 1143.9 240.875 1252.62 167.265L1446.4 36.0621" stroke="#00CE76" stroke-opacity="0.3"/>
<path d="M2.16726 223.762L109.164 286.728C237.06 361.992 396.546 358.34 520.863 277.301V277.301C613.355 217.007 727.032 198.642 833.804 226.744L882.274 239.5C1009.24 272.917 1144.46 249.858 1253.18 176.248L1446.96 45.0448" stroke="#00CE76" stroke-opacity="0.3"/>
<path d="M2.17391 234.762L109.171 297.727C237.067 372.991 396.553 369.34 520.87 288.3V288.3C613.362 228.007 727.039 209.642 833.811 237.743L882.281 250.5C1009.25 283.917 1144.47 260.858 1253.18 187.248L1446.96 56.0444" stroke="#00CE76" stroke-opacity="0.3"/>
<path d="M2.18063 245.762L109.178 308.727C237.074 383.991 396.559 380.339 520.876 299.3V299.3C613.368 239.007 727.045 220.642 833.818 248.743L882.287 261.5C1009.26 294.917 1144.47 271.857 1253.19 198.247L1446.97 67.044" stroke="#00CE76" stroke-opacity="0.3"/>
<path d="M2.18667 255.761L109.184 318.727C237.08 393.991 396.565 390.339 520.882 309.3V309.3C613.374 249.006 727.051 230.641 833.824 258.743L882.294 271.499C1009.26 304.916 1144.48 281.857 1253.2 208.247L1446.98 77.0436" stroke="#00CE76" stroke-opacity="0.3"/>
<path d="M2.19277 265.761L109.19 328.726C237.086 403.99 396.572 400.338 520.888 319.299V319.299C613.381 259.006 727.057 240.641 833.83 268.742L882.3 281.499C1009.27 314.916 1144.49 291.857 1253.2 218.246L1446.98 87.0432" stroke="#00CE76" stroke-opacity="0.3"/>
</svg>
